<svg width="520" height="510" viewBox="0 0 520 510" xmlns="http://www.w3.org/2000/svg">
        <style>
            .title { font: 600 20px 'Segoe UI', Ubuntu, Sans-Serif; fill: #58A6FF; }
            .header { font: 600 16px 'Segoe UI', Ubuntu, Sans-Serif; fill: #E6EDF3; }
            .text-primary { font: 600 14px 'Segoe UI', Ubuntu, Sans-Serif; fill: #E6EDF3; }
            .text-secondary { font: 400 13px 'Segoe UI', Ubuntu, Sans-Serif; fill: #8B949E; }
            .bar-bg { fill: #161B22; rx: 4px; ry: 4px; }
            .card-bg { fill: #0D1117; stroke: #30363D; stroke-width: 1px; rx: 8px; ry: 8px; }
        </style>
        
        <rect width="518" height="508" x="1" y="1" class="card-bg"/>
        
        <text x="40" y="45" class="title">aniketchawardol</text>
        
        <text class="text-secondary" x="40" y="75">Joined GitHub 3 years ago</text>
        <text class="text-secondary" x="280" y="75">Contributed to 11 repos</text>
        
        <text class="text-secondary" x="40" y="100">Followed by 4 users</text>

        <line x1="40" y1="125" x2="480" y2="125" stroke="#21262D" stroke-width="1" />

        <text x="40" y="155" class="header">Activity</text>
        
        <text class="text-secondary" x="40" y="185">Code Reviews &amp; Feedback</text>
        <text class="text-primary" x="240" y="185" text-anchor="end">38</text>
        
        <text class="text-secondary" x="280" y="185">PRs Opened</text>
        <text class="text-primary" x="480" y="185" text-anchor="end">16</text>

        <text class="text-secondary" x="40" y="215">Total Commits</text>
        <text class="text-primary" x="240" y="215" text-anchor="end">1018</text>
        
        <text class="text-secondary" x="280" y="215">Issues Opened</text>
        <text class="text-primary" x="480" y="215" text-anchor="end">11</text>
        
        <line x1="40" y1="240" x2="480" y2="240" stroke="#21262D" stroke-width="1" />

        <text x="40" y="270" class="header">&lt;/&gt; 12 Languages</text>
        
        <g transform="translate(40, 285)">
            <rect width="460" height="8" class="bar-bg"/>
            <clipPath id="corners"><rect width="460" height="8" rx="4" ry="4"/></clipPath>
            <g clip-path="url(#corners)"><rect x="0" y="0" width="323.94904166683517" height="8" fill="#f1e05a"/>
<rect x="323.94904166683517" y="0" width="35.8265766767629" height="8" fill="#555555"/>
<rect x="359.77561834359807" y="0" width="35.7174457209639" height="8" fill="#3178c6"/>
<rect x="395.49306406456196" y="0" width="29.934745188114753" height="8" fill="#3572A5"/>
<rect x="425.4278092526767" y="0" width="14.75934170956554" height="8" fill="#f34b7d"/>
<rect x="440.18715096224224" y="0" width="10.88023228071027" height="8" fill="#663399"/>
<rect x="451.06738324295253" y="0" width="6.4133038399376705" height="8" fill="#e34c26"/>
<rect x="457.4806870828902" y="0" width="0.781898495809862" height="8" fill="#DA3434"/>
<rect x="458.26258557870005" y="0" width="0.6690471665177169" height="8" fill="#427819"/>
<rect x="458.93163274521777" y="0" width="0.5022504215749312" height="8" fill="#384d54"/>
<rect x="459.4338831667927" y="0" width="0.2957696927052373" height="8" fill="#89e051"/>
<rect x="459.72965285949795" y="0" width="0.27034714050206166" height="8" fill="#C1F12E"/>
</g>
        </g>
        
        
        <g transform="translate(0, 285)">
            <circle cx="25" cy="-4" r="4" fill="#f1e05a"/>
            <text x="40" y="0" class="text-secondary">JavaScript</text>
            <text x="220" y="0" class="text-secondary" text-anchor="end">70.42%</text>
        </g>
        
        <g transform="translate(0, 285)">
            <circle cx="265" cy="-4" r="4" fill="#555555"/>
            <text x="280" y="0" class="text-secondary">C</text>
            <text x="460" y="0" class="text-secondary" text-anchor="end">7.79%</text>
        </g>
        
        <g transform="translate(0, 310)">
            <circle cx="25" cy="-4" r="4" fill="#3178c6"/>
            <text x="40" y="0" class="text-secondary">TypeScript</text>
            <text x="220" y="0" class="text-secondary" text-anchor="end">7.76%</text>
        </g>
        
        <g transform="translate(0, 310)">
            <circle cx="265" cy="-4" r="4" fill="#3572A5"/>
            <text x="280" y="0" class="text-secondary">Python</text>
            <text x="460" y="0" class="text-secondary" text-anchor="end">6.51%</text>
        </g>
        
        <g transform="translate(0, 335)">
            <circle cx="25" cy="-4" r="4" fill="#f34b7d"/>
            <text x="40" y="0" class="text-secondary">C++</text>
            <text x="220" y="0" class="text-secondary" text-anchor="end">3.21%</text>
        </g>
        
        <g transform="translate(0, 335)">
            <circle cx="265" cy="-4" r="4" fill="#663399"/>
            <text x="280" y="0" class="text-secondary">CSS</text>
            <text x="460" y="0" class="text-secondary" text-anchor="end">2.37%</text>
        </g>
        
        <g transform="translate(0, 360)">
            <circle cx="25" cy="-4" r="4" fill="#e34c26"/>
            <text x="40" y="0" class="text-secondary">HTML</text>
            <text x="220" y="0" class="text-secondary" text-anchor="end">1.39%</text>
        </g>
        
        <g transform="translate(0, 360)">
            <circle cx="265" cy="-4" r="4" fill="#DA3434"/>
            <text x="280" y="0" class="text-secondary">CMake</text>
            <text x="460" y="0" class="text-secondary" text-anchor="end">0.17%</text>
        </g>
        
        <g transform="translate(0, 385)">
            <circle cx="25" cy="-4" r="4" fill="#427819"/>
            <text x="40" y="0" class="text-secondary">Makefile</text>
            <text x="220" y="0" class="text-secondary" text-anchor="end">0.15%</text>
        </g>
        
        <g transform="translate(0, 385)">
            <circle cx="265" cy="-4" r="4" fill="#384d54"/>
            <text x="280" y="0" class="text-secondary">Dockerfile</text>
            <text x="460" y="0" class="text-secondary" text-anchor="end">0.11%</text>
        </g>
        
        <g transform="translate(0, 410)">
            <circle cx="25" cy="-4" r="4" fill="#89e051"/>
            <text x="40" y="0" class="text-secondary">Shell</text>
            <text x="220" y="0" class="text-secondary" text-anchor="end">0.06%</text>
        </g>
        
        <g transform="translate(0, 410)">
            <circle cx="265" cy="-4" r="4" fill="#C1F12E"/>
            <text x="280" y="0" class="text-secondary">Batchfile</text>
            <text x="460" y="0" class="text-secondary" text-anchor="end">0.06%</text>
        </g>
        

        <line x1="40" y1="435" x2="480" y2="435" stroke="#21262D" stroke-width="1" />

        <text x="40" y="465" class="header">Contributions Stats</text>
        
        <text class="text-secondary" x="40" y="490">Best streak</text>
        <text class="text-primary" x="150" y="490">4 days</text>
        
        <text class="text-secondary" x="220" y="490">Highest in a day</text>
        <text class="text-primary" x="330" y="490">7</text>

        <text class="text-secondary" x="380" y="490">Daily Avg</text>
        <text class="text-primary" x="480" y="490" text-anchor="end">~0.48</text>
        
    </svg>