<svg width="520" height="568" viewBox="0 0 520 568" xmlns="http://www.w3.org/2000/svg">
        <style>
            .title { font: 600 20px 'Segoe UI', Ubuntu, Sans-Serif; fill: #58A6FF; }
            .header { font: 600 16px 'Segoe UI', Ubuntu, Sans-Serif; fill: #E6EDF3; }
            .text-primary { font: 600 14px 'Segoe UI', Ubuntu, Sans-Serif; fill: #E6EDF3; }
            .text-secondary { font: 400 13px 'Segoe UI', Ubuntu, Sans-Serif; fill: #8B949E; }
            .bar-bg { fill: #161B22; rx: 4px; ry: 4px; }
            .card-bg { fill: #0D1117; stroke: #30363D; stroke-width: 1px; rx: 8px; ry: 8px; }
        </style>
        
        <rect width="518" height="566" x="1" y="1" class="card-bg"/>
        
        <text x="40" y="45" class="title">aniketchawardol</text>
        
        <text class="text-secondary" x="40" y="75">Joined GitHub 3 years ago</text>
        <text class="text-secondary" x="280" y="75">Contributed to 26 repos</text>
        
        <text class="text-secondary" x="40" y="100">Followed by 5 users</text>

        <line x1="40" y1="125" x2="480" y2="125" stroke="#21262D" stroke-width="1" />

        <text x="40" y="155" class="header">Activity</text>
        
        <text class="text-secondary" x="40" y="185">Code Reviews &amp; Feedback</text>
        <text class="text-primary" x="240" y="185" text-anchor="end">48</text>
        
        <text class="text-secondary" x="280" y="185">PRs Opened</text>
        <text class="text-primary" x="480" y="185" text-anchor="end">19</text>

        <text class="text-secondary" x="40" y="215">Total Commits</text>
        <text class="text-primary" x="240" y="215" text-anchor="end">1119</text>
        
        <text class="text-secondary" x="280" y="215">Issues Opened</text>
        <text class="text-primary" x="480" y="215" text-anchor="end">12</text>
        
        <line x1="40" y1="245" x2="480" y2="245" stroke="#21262D" stroke-width="1" />

        <text x="40" y="275" class="header">&lt;/&gt; 12 Languages</text>
        
        <g transform="translate(40, 295)">
            <rect width="440" height="8" class="bar-bg"/>
            <clipPath id="corners"><rect width="440" height="8" rx="4" ry="4"/></clipPath>
            <g clip-path="url(#corners)"><rect x="0" y="0" width="232.30911796629144" height="8" fill="#f1e05a"/>
<rect x="232.30911796629144" y="0" width="144.26485244827327" height="8" fill="#3572A5"/>
<rect x="376.5739704145647" y="0" width="26.913735314797496" height="8" fill="#3178c6"/>
<rect x="403.48770572936223" y="0" width="16.07713101828781" height="8" fill="#663399"/>
<rect x="419.56483674765" y="0" width="10.846553713197398" height="8" fill="#555555"/>
<rect x="430.41139046084743" y="0" width="4.468414441842844" height="8" fill="#f34b7d"/>
<rect x="434.8798049026903" y="0" width="3.0786874278965946" height="8" fill="#e34c26"/>
<rect x="437.95849233058686" y="0" width="1.4308387545992585" height="8" fill="#384d54"/>
<rect x="439.38933108518614" y="0" width="0.2367210272303418" height="8" fill="#DA3434"/>
<rect x="439.62605211241646" y="0" width="0.20255510577441618" height="8" fill="#427819"/>
<rect x="439.8286072181909" y="0" width="0.08954475018943142" height="8" fill="#89e051"/>
<rect x="439.9181519683803" y="0" width="0.08184803161968994" height="8" fill="#C1F12E"/>
</g>
        </g>
        
        
        <g transform="translate(0, 330)">
            <circle cx="48" cy="-4" r="4" fill="#f1e05a"/>
            <text x="60" y="0" class="text-secondary">JavaScript</text>
            <text x="240" y="0" class="text-secondary" text-anchor="end">52.8%</text>
        </g>
        
        <g transform="translate(0, 330)">
            <circle cx="288" cy="-4" r="4" fill="#3572A5"/>
            <text x="300" y="0" class="text-secondary">Python</text>
            <text x="480" y="0" class="text-secondary" text-anchor="end">32.79%</text>
        </g>
        
        <g transform="translate(0, 358)">
            <circle cx="48" cy="-4" r="4" fill="#3178c6"/>
            <text x="60" y="0" class="text-secondary">TypeScript</text>
            <text x="240" y="0" class="text-secondary" text-anchor="end">6.12%</text>
        </g>
        
        <g transform="translate(0, 358)">
            <circle cx="288" cy="-4" r="4" fill="#663399"/>
            <text x="300" y="0" class="text-secondary">CSS</text>
            <text x="480" y="0" class="text-secondary" text-anchor="end">3.65%</text>
        </g>
        
        <g transform="translate(0, 386)">
            <circle cx="48" cy="-4" r="4" fill="#555555"/>
            <text x="60" y="0" class="text-secondary">C</text>
            <text x="240" y="0" class="text-secondary" text-anchor="end">2.47%</text>
        </g>
        
        <g transform="translate(0, 386)">
            <circle cx="288" cy="-4" r="4" fill="#f34b7d"/>
            <text x="300" y="0" class="text-secondary">C++</text>
            <text x="480" y="0" class="text-secondary" text-anchor="end">1.02%</text>
        </g>
        
        <g transform="translate(0, 414)">
            <circle cx="48" cy="-4" r="4" fill="#e34c26"/>
            <text x="60" y="0" class="text-secondary">HTML</text>
            <text x="240" y="0" class="text-secondary" text-anchor="end">0.7%</text>
        </g>
        
        <g transform="translate(0, 414)">
            <circle cx="288" cy="-4" r="4" fill="#384d54"/>
            <text x="300" y="0" class="text-secondary">Dockerfile</text>
            <text x="480" y="0" class="text-secondary" text-anchor="end">0.33%</text>
        </g>
        
        <g transform="translate(0, 442)">
            <circle cx="48" cy="-4" r="4" fill="#DA3434"/>
            <text x="60" y="0" class="text-secondary">CMake</text>
            <text x="240" y="0" class="text-secondary" text-anchor="end">0.05%</text>
        </g>
        
        <g transform="translate(0, 442)">
            <circle cx="288" cy="-4" r="4" fill="#427819"/>
            <text x="300" y="0" class="text-secondary">Makefile</text>
            <text x="480" y="0" class="text-secondary" text-anchor="end">0.05%</text>
        </g>
        
        <g transform="translate(0, 470)">
            <circle cx="48" cy="-4" r="4" fill="#89e051"/>
            <text x="60" y="0" class="text-secondary">Shell</text>
            <text x="240" y="0" class="text-secondary" text-anchor="end">0.02%</text>
        </g>
        
        <g transform="translate(0, 470)">
            <circle cx="288" cy="-4" r="4" fill="#C1F12E"/>
            <text x="300" y="0" class="text-secondary">Batchfile</text>
            <text x="480" y="0" class="text-secondary" text-anchor="end">0.02%</text>
        </g>
        

        <line x1="40" y1="493" x2="480" y2="493" stroke="#21262D" stroke-width="1" />

        <text x="40" y="523" class="header">Contributions Stats</text>
        
        <text class="text-secondary" x="40" y="548">Best streak</text>
        <text class="text-primary" x="140" y="548">4 days</text>
        
        <text class="text-secondary" x="200" y="548">Highest in a day</text>
        <text class="text-primary" x="320" y="548">7</text>

        <text class="text-secondary" x="375" y="548">Daily Avg</text>
        <text class="text-primary" x="480" y="548" text-anchor="end">~0.48</text>
        
    </svg>