<svg width="520" height="568" viewBox="0 0 520 568" xmlns="http://www.w3.org/2000/svg">
        <style>
            .title { font: 600 20px 'Segoe UI', Ubuntu, Sans-Serif; fill: #58A6FF; }
            .header { font: 600 16px 'Segoe UI', Ubuntu, Sans-Serif; fill: #E6EDF3; }
            .text-primary { font: 600 14px 'Segoe UI', Ubuntu, Sans-Serif; fill: #E6EDF3; }
            .text-secondary { font: 400 13px 'Segoe UI', Ubuntu, Sans-Serif; fill: #8B949E; }
            .bar-bg { fill: #161B22; rx: 4px; ry: 4px; }
            .card-bg { fill: #0D1117; stroke: #30363D; stroke-width: 1px; rx: 8px; ry: 8px; }
        </style>
        
        <rect width="518" height="566" x="1" y="1" class="card-bg"/>
        
        <text x="40" y="45" class="title">aniketchawardol</text>
        
        <text class="text-secondary" x="40" y="75">Joined GitHub 3 years ago</text>
        <text class="text-secondary" x="280" y="75">Contributed to 26 repos</text>
        
        <text class="text-secondary" x="40" y="100">Followed by 4 users</text>

        <line x1="40" y1="125" x2="480" y2="125" stroke="#21262D" stroke-width="1" />

        <text x="40" y="155" class="header">Activity</text>
        
        <text class="text-secondary" x="40" y="185">Code Reviews &amp; Feedback</text>
        <text class="text-primary" x="240" y="185" text-anchor="end">47</text>
        
        <text class="text-secondary" x="280" y="185">PRs Opened</text>
        <text class="text-primary" x="480" y="185" text-anchor="end">19</text>

        <text class="text-secondary" x="40" y="215">Total Commits</text>
        <text class="text-primary" x="240" y="215" text-anchor="end">1063</text>
        
        <text class="text-secondary" x="280" y="215">Issues Opened</text>
        <text class="text-primary" x="480" y="215" text-anchor="end">12</text>
        
        <line x1="40" y1="245" x2="480" y2="245" stroke="#21262D" stroke-width="1" />

        <text x="40" y="275" class="header">&lt;/&gt; 12 Languages</text>
        
        <g transform="translate(40, 295)">
            <rect width="440" height="8" class="bar-bg"/>
            <clipPath id="corners"><rect width="440" height="8" rx="4" ry="4"/></clipPath>
            <g clip-path="url(#corners)"><rect x="0" y="0" width="312.10658889036193" height="8" fill="#f1e05a"/>
<rect x="312.10658889036193" y="0" width="33.70377833753149" height="8" fill="#555555"/>
<rect x="345.81036722789344" y="0" width="33.60111361527244" height="8" fill="#3178c6"/>
<rect x="379.41148084316586" y="0" width="27.821556409916482" height="8" fill="#3572A5"/>
<rect x="407.23303725308233" y="0" width="13.884820363250695" height="8" fill="#f34b7d"/>
<rect x="421.117857616333" y="0" width="10.235556144769985" height="8" fill="#663399"/>
<rect x="431.353413761103" y="0" width="6.2765477926554425" height="8" fill="#e34c26"/>
<rect x="437.62996155375845" y="0" width="0.7355694020946574" height="8" fill="#DA3434"/>
<rect x="438.3655309558531" y="0" width="0.6294047461222324" height="8" fill="#427819"/>
<rect x="438.99493570197535" y="0" width="0.47249105130584645" height="8" fill="#384d54"/>
<rect x="439.4674267532812" y="0" width="0.27824473021344287" height="8" fill="#89e051"/>
<rect x="439.7456714834946" y="0" width="0.2543285165053692" height="8" fill="#C1F12E"/>
</g>
        </g>
        
        
        <g transform="translate(0, 330)">
            <circle cx="48" cy="-4" r="4" fill="#f1e05a"/>
            <text x="60" y="0" class="text-secondary">JavaScript</text>
            <text x="240" y="0" class="text-secondary" text-anchor="end">70.93%</text>
        </g>
        
        <g transform="translate(0, 330)">
            <circle cx="288" cy="-4" r="4" fill="#555555"/>
            <text x="300" y="0" class="text-secondary">C</text>
            <text x="480" y="0" class="text-secondary" text-anchor="end">7.66%</text>
        </g>
        
        <g transform="translate(0, 358)">
            <circle cx="48" cy="-4" r="4" fill="#3178c6"/>
            <text x="60" y="0" class="text-secondary">TypeScript</text>
            <text x="240" y="0" class="text-secondary" text-anchor="end">7.64%</text>
        </g>
        
        <g transform="translate(0, 358)">
            <circle cx="288" cy="-4" r="4" fill="#3572A5"/>
            <text x="300" y="0" class="text-secondary">Python</text>
            <text x="480" y="0" class="text-secondary" text-anchor="end">6.32%</text>
        </g>
        
        <g transform="translate(0, 386)">
            <circle cx="48" cy="-4" r="4" fill="#f34b7d"/>
            <text x="60" y="0" class="text-secondary">C++</text>
            <text x="240" y="0" class="text-secondary" text-anchor="end">3.16%</text>
        </g>
        
        <g transform="translate(0, 386)">
            <circle cx="288" cy="-4" r="4" fill="#663399"/>
            <text x="300" y="0" class="text-secondary">CSS</text>
            <text x="480" y="0" class="text-secondary" text-anchor="end">2.33%</text>
        </g>
        
        <g transform="translate(0, 414)">
            <circle cx="48" cy="-4" r="4" fill="#e34c26"/>
            <text x="60" y="0" class="text-secondary">HTML</text>
            <text x="240" y="0" class="text-secondary" text-anchor="end">1.43%</text>
        </g>
        
        <g transform="translate(0, 414)">
            <circle cx="288" cy="-4" r="4" fill="#DA3434"/>
            <text x="300" y="0" class="text-secondary">CMake</text>
            <text x="480" y="0" class="text-secondary" text-anchor="end">0.17%</text>
        </g>
        
        <g transform="translate(0, 442)">
            <circle cx="48" cy="-4" r="4" fill="#427819"/>
            <text x="60" y="0" class="text-secondary">Makefile</text>
            <text x="240" y="0" class="text-secondary" text-anchor="end">0.14%</text>
        </g>
        
        <g transform="translate(0, 442)">
            <circle cx="288" cy="-4" r="4" fill="#384d54"/>
            <text x="300" y="0" class="text-secondary">Dockerfile</text>
            <text x="480" y="0" class="text-secondary" text-anchor="end">0.11%</text>
        </g>
        
        <g transform="translate(0, 470)">
            <circle cx="48" cy="-4" r="4" fill="#89e051"/>
            <text x="60" y="0" class="text-secondary">Shell</text>
            <text x="240" y="0" class="text-secondary" text-anchor="end">0.06%</text>
        </g>
        
        <g transform="translate(0, 470)">
            <circle cx="288" cy="-4" r="4" fill="#C1F12E"/>
            <text x="300" y="0" class="text-secondary">Batchfile</text>
            <text x="480" y="0" class="text-secondary" text-anchor="end">0.06%</text>
        </g>
        

        <line x1="40" y1="493" x2="480" y2="493" stroke="#21262D" stroke-width="1" />

        <text x="40" y="523" class="header">Contributions Stats</text>
        
        <text class="text-secondary" x="40" y="548">Best streak</text>
        <text class="text-primary" x="140" y="548">4 days</text>
        
        <text class="text-secondary" x="200" y="548">Highest in a day</text>
        <text class="text-primary" x="320" y="548">7</text>

        <text class="text-secondary" x="375" y="548">Daily Avg</text>
        <text class="text-primary" x="480" y="548" text-anchor="end">~0.48</text>
        
    </svg>